TITLE ""
FILE "Disc2Track52.mp3" MP3
  TRACK 01 AUDIO
    TITLE "Disc2Track52_01"
    INDEX 01 00:00:00
  TRACK 02 AUDIO
    TITLE "Disc2Track52_02"
    INDEX 01 00:01:16
  TRACK 03 AUDIO
    TITLE "Disc2Track52_03"
    INDEX 01 00:02:07
  TRACK 04 AUDIO
    TITLE "Disc2Track52_04"
    INDEX 01 00:03:32
  TRACK 05 AUDIO
    TITLE "Disc2Track52_05"
    INDEX 01 00:05:41
  TRACK 06 AUDIO
    TITLE "Disc2Track52_06"
    INDEX 01 00:06:03
  TRACK 07 AUDIO
    TITLE "Disc2Track52_07"
    INDEX 01 00:07:32
  TRACK 08 AUDIO
    TITLE "Disc2Track52_08"
    INDEX 01 00:08:41
  TRACK 09 AUDIO
    TITLE "Disc2Track52_09"
    INDEX 01 00:09:70
  TRACK 10 AUDIO
    TITLE "Disc2Track52_10"
    INDEX 01 00:10:36
  TRACK 11 AUDIO
    TITLE "Disc2Track52_11"
    INDEX 01 00:11:63
  TRACK 12 AUDIO
    TITLE "Disc2Track52_12"
    INDEX 01 00:13:52
  TRACK 13 AUDIO
    TITLE "Disc2Track52_13"
    INDEX 01 00:15:04
  TRACK 14 AUDIO
    TITLE "Disc2Track52_14"
    INDEX 01 00:15:45
  TRACK 15 AUDIO
    TITLE "Disc2Track52_15"
    INDEX 01 00:17:01
  TRACK 16 AUDIO
    TITLE "Disc2Track52_16"
    INDEX 01 00:18:16
  TRACK 17 AUDIO
    TITLE "Disc2Track52_17"
    INDEX 01 00:19:47
  TRACK 18 AUDIO
    TITLE "Disc2Track52_18"
    INDEX 01 00:21:63
  TRACK 19 AUDIO
    TITLE "Disc2Track52_19"
    INDEX 01 00:22:20
  TRACK 20 AUDIO
    TITLE "Disc2Track52_20"
    INDEX 01 00:23:52
  TRACK 21 AUDIO
    TITLE "Disc2Track52_21"
    INDEX 01 00:24:50
  TRACK 22 AUDIO
    TITLE "Disc2Track52_22"
    INDEX 01 00:26:10
  TRACK 23 AUDIO
    TITLE "Disc2Track52_23"
    INDEX 01 00:28:13
  TRACK 24 AUDIO
    TITLE "Disc2Track52_24"
    INDEX 01 00:28:44
  TRACK 25 AUDIO
    TITLE "Disc2Track52_25"
    INDEX 01 00:30:15
  TRACK 26 AUDIO
    TITLE "Disc2Track52_26"
    INDEX 01 00:31:13
  TRACK 27 AUDIO
    TITLE "Disc2Track52_27"
    INDEX 01 00:32:57
  TRACK 28 AUDIO
    TITLE "Disc2Track52_28"
    INDEX 01 00:37:25
  TRACK 29 AUDIO
    TITLE "Disc2Track52_29"
    INDEX 01 00:37:57
  TRACK 30 AUDIO
    TITLE "Disc2Track52_30"
    INDEX 01 00:39:04
  TRACK 31 AUDIO
    TITLE "Disc2Track52_31"
    INDEX 01 00:40:14
  TRACK 32 AUDIO
    TITLE "Disc2Track52_32"
    INDEX 01 00:41:39
  TRACK 33 AUDIO
    TITLE "Disc2Track52_33"
    INDEX 01 00:43:40
  TRACK 34 AUDIO
    TITLE "Disc2Track52_34"
    INDEX 01 00:43:69
  TRACK 35 AUDIO
    TITLE "Disc2Track52_35"
    INDEX 01 00:45:29
  TRACK 36 AUDIO
    TITLE "Disc2Track52_36"
    INDEX 01 00:46:34
  TRACK 37 AUDIO
    TITLE "Disc2Track52_37"
    INDEX 01 00:47:69
  TRACK 38 AUDIO
    TITLE "Disc2Track52_38"
    INDEX 01 00:48:33
  TRACK 39 AUDIO
    TITLE "Disc2Track52_39"
    INDEX 01 00:49:71
  TRACK 40 AUDIO
    TITLE "Disc2Track52_40"
    INDEX 01 00:51:16
  TRACK 41 AUDIO
    TITLE "Disc2Track52_41"
    INDEX 01 00:52:56
  TRACK 42 AUDIO
    TITLE "Disc2Track52_42"
    INDEX 01 00:53:20
  TRACK 43 AUDIO
    TITLE "Disc2Track52_43"
    INDEX 01 00:54:59
  TRACK 44 AUDIO
    TITLE "Disc2Track52_44"
    INDEX 01 00:56:28
  TRACK 45 AUDIO
    TITLE "Disc2Track52_45"
    INDEX 01 00:57:63
  TRACK 46 AUDIO
    TITLE "Disc2Track52_46"
    INDEX 01 01:00:30
  TRACK 47 AUDIO
    TITLE "Disc2Track52_47"
    INDEX 01 01:00:67
  TRACK 48 AUDIO
    TITLE "Disc2Track52_48"
    INDEX 01 01:02:37
  TRACK 49 AUDIO
    TITLE "Disc2Track52_49"
    INDEX 01 01:03:50
  TRACK 50 AUDIO
    TITLE "Disc2Track52_50"
    INDEX 01 01:05:22
  TRACK 51 AUDIO
    TITLE "Disc2Track52_51"
    INDEX 01 01:05:59
  TRACK 52 AUDIO
    TITLE "Disc2Track52_52"
    INDEX 01 01:07:32
  TRACK 53 AUDIO
    TITLE "Disc2Track52_53"
    INDEX 01 01:10:25
  TRACK 54 AUDIO
    TITLE "Disc2Track52_54"
    INDEX 01 01:12:02
  TRACK 55 AUDIO
    TITLE "Disc2Track52_55"
    INDEX 01 01:14:32
  TRACK 56 AUDIO
    TITLE "Disc2Track52_56"
    INDEX 01 01:14:64
  TRACK 57 AUDIO
    TITLE "Disc2Track52_57"
    INDEX 01 01:16:19
  TRACK 58 AUDIO
    TITLE "Disc2Track52_58"
    INDEX 01 01:18:16
  TRACK 59 AUDIO
    TITLE "Disc2Track52_59"
    INDEX 01 01:19:47
  TRACK 60 AUDIO
    TITLE "Disc2Track52_60"
    INDEX 01 01:22:71
